<?xml version="1.0" encoding="utf-8"?>
<!-- Generator: Adobe Illustrator 18.0.0, SVG Export Plug-In . SVG Version: 6.00 Build 0)  -->
<!DOCTYPE svg PUBLIC "-//W3C//DTD SVG 1.1//EN" "http://www.w3.org/Graphics/SVG/1.1/DTD/svg11.dtd">
<svg version="1.1" id="Layer_1" xmlns="http://www.w3.org/2000/svg" xmlns:xlink="http://www.w3.org/1999/xlink" x="0px" y="0px"
	 width="841.9px" height="595.3px" viewBox="0 0 841.9 595.3" enable-background="new 0 0 841.9 595.3" xml:space="preserve">
<g>
	<rect fill="#344180" width="841.9" height="595.3"/>
	<g>
		<path fill="#3961AD" d="M461,571.8c3.3-1.9,8.1-4.8,9.7-6.1c-4.2,2-8.3,4.1-12.1,5.9c-3.8,1.9-7.2,3.8-10.2,5.3
			c-5.8,3.1-9.4,5.5-8.8,5.9c8.3-3.7,21.1-9.3,29.9-13.1c0,0-2.2,0.9-4.4,1.9c-1.1,0.5-2.2,0.9-3,1.2c-0.8,0.3-1.4,0.6-1.4,0.6
			C455.9,575,457.7,573.8,461,571.8z"/>
		<path fill="#3961AD" d="M0,0v579.3c4.4,1.8,8.7,3.5,12.9,5.2c2.6,1.1,5.2,2,7.7,3c2.5,1,4.9,1.9,7.3,2.8c4.7,1.7,9,3.4,13.1,5
			h22.3c-15.4-6.2-28.5-13-37.2-18.6c20.7,7.5,41.8,13.7,63.1,18.6h276.3c3.7-0.9,7.5-1.8,11.1-2.8c6.4-1.6,12.6-3.5,18.9-5.3
			c3.1-1,6.2-2,9.3-3c1.5-0.5,3.1-1,4.6-1.5l4.6-1.6c12.2-4.3,24.2-9.4,36.1-15.4c-4,3.2-5.9,5-5.7,5.8c0.1,0.8,2.3,0.6,5.9-0.5
			c7.2-2.2,20.6-8,36.3-16.4c15.7-8.4,33.6-19.5,50.3-31.5c16.8-11.9,32.3-24.7,44.2-35.2c7.8-6.7,13.6-12.3,18.3-16.9
			c4.5-4.7,7.9-8.3,10.4-11.3c4.9-6.1,6.7-9.3,8.6-12.7c0.9-1.7,1.8-3.4,3.2-5.5c1.3-2.1,3.2-4.6,5.6-7.9c1.2-1.7,2.7-3.5,4.4-5.6
			c0.8-1,1.7-2.2,2.7-3.3c0.9-1.2,2-2.5,3-3.8c4.3-5.4,9.7-12,16.3-20.4c7.3-7.9,8-7.3,5.4-2.6c-0.6,1.2-1.5,2.6-2.4,4.2
			c-1,1.6-2.1,3.4-3.4,5.3c-1.3,1.9-2.6,3.9-4,6c-1.4,2.1-2.8,4.2-4.3,6.2c-1.5,2.1-2.9,4.1-4.3,6c-0.7,1-1.4,1.9-2,2.8
			c-0.7,0.9-1.3,1.8-1.9,2.6c-2.4,3.4-4.3,6.1-5.2,7.7c-1.8,3.3,0.6,2.1,10.9-7.9c0,0,1.5-2,3.8-5c1.1-1.5,2.5-3.2,3.9-5.1
			c1.4-1.9,2.9-3.9,4.3-6c1.5-2,2.9-4.1,4.3-6c1.3-1.9,2.6-3.7,3.6-5.3c2.1-3.1,3.5-5.2,3.5-5.2c6.1-11.3,11-21.8,15.9-33
			c4.8-11,9.9-22.6,16-36.5c2.1-3.9,4.5-8.3,6.8-12.8c1.2-2.2,2.3-4.5,3.4-6.7c1.1-2.2,2.2-4.3,3.2-6.4c2-4,3.8-7.6,5.2-10.1
			c1.4-2.6,2.3-4.1,2.7-4.1c-1.6,4.1-2.9,7.5-4,10.3c-1.1,2.8-1.8,5-2.3,6.7c-1,3.3-0.7,4.3,0.5,3.2c1.2-1,3.4-4.1,6.4-9
			c1.5-2.5,3.1-5.4,4.9-8.7c1.9-3.3,3.7-7.2,5.8-11.4c0.7-2.1,1.3-4,1.8-5.7c0.5-1.7,1-3.3,1.4-4.7c0.8-2.9,1.5-5.2,2.1-7.3
			c1.1-4.2,1.7-7.3,2.5-11.4c-2.1,4.1-3.9,7.3-5.3,9.9c-1.5,2.5-2.6,4.3-3.5,5.5c-1.7,2.3-2.1,2.1-1.5-0.1c0.5-2.2,2.1-6.4,4.1-12.1
			c2.1-5.7,4.6-12.9,7.3-21c5.4-16.3,11.2-36.5,15.1-56c4-19.5,6.1-38.2,6.1-50.9c0.6-9.2,0.8-17.6,1.1-25.2
			c0.1-3.8,0.2-7.4,0.3-10.9c0-3.4,0.1-6.7,0.1-9.8c0-6.2,0.1-11.8,0.1-16.9c0-5.1,0-9.6,0.1-13.7c0-4.1,0.1-7.8,0.2-11.1
			c0.1-3.4,0.2-6.4,0.4-9.2c0.4-5.7,0.7-10.5,1.2-15.3c0.2-2.4,0.4-4.8,0.5-7.3c0.1-2,0.2-4.2,0.3-6.4H0z"/>
	</g>
	<g>
		<path fill="none" d="M87.5,360.6c0,0-0.4-0.2-1.2-0.6c-0.7-0.4-1.8-0.9-3-1.6c-2.4-1.4-5.7-3.3-9-5.1c-0.3-0.2-0.6-0.3-0.9-0.5
			c-22.1-10.4-42.9-23.2-61.9-38.2c7.5,6.5,15.4,12.8,23.6,18.6C52.3,345.4,70.6,355.2,87.5,360.6z"/>
		<path fill="#75D1F3" d="M523.1,177.9c-1.2,3.7-1.6,6.2-1.1,6.2c0.5-1.3,1.1-2.7,1.7-4.2c0.6-1.5,1.3-3.1,1.9-4.7
			c1.2-3.2,2.5-6.5,3.6-9.1l-2.2,5.2c-2.7,5.2,0.7-5,0.8-7.5C525.7,169,524.2,174.1,523.1,177.9z"/>
		<path fill="#75D1F3" d="M0,321.2c6.1,5,12.4,9.8,19,14.4c18,12.6,37.7,23.3,58.4,32c20.7,8.6,42.4,15.1,64.4,19.4
			c22,4.3,44.4,6.3,66.5,6.4c0,0,0.3,0,0.7,0.1c0.5,0.1,1.1,0.2,1.9,0.2c1.6,0.2,3.8,0.4,5.9,0.6c4.3,0.4,8.6,0.9,8.6,0.9
			c1.6,0,3.2-0.1,4.7-0.2c1.5-0.1,2.9-0.2,4.3-0.3c2.8-0.2,5.3-0.4,7.6-0.5c2.3-0.1,4.4-0.5,6.4-0.8c1.9-0.3,3.7-0.5,5.3-0.8
			c3.2-0.5,5.8-1,7.9-1.5c2.1-0.6,3.9-1.1,5.4-1.6c3-1,5.2-1.9,8-2.9c1.4-0.5,3-1.1,4.9-1.8c1.9-0.7,4.2-1.4,7-2.2
			c5.5-0.8,3.7,0.8,6.8,0.7c12.6-4.1,10.3-3.9,6.2-3.1c-4.1,0.8-10.2,2.1-5.4,0.2c6.4-1.9,13.3-3.7,20-6.3c1.7-0.6,3.4-1.2,5.1-1.8
			c1.7-0.6,3.4-1.2,5.1-1.9c3.3-1.3,6.6-2.7,9.9-4c3.3-1.2,6.4-2.7,9.4-4c3-1.3,5.9-2.6,8.7-3.7c5.4-2.6,10.3-4.7,14.4-6.1
			c0,0,0.3-0.5,0.8-1.3c0.5-0.8,1.1-1.8,1.8-2.8c1.3-2.1,2.5-4.1,2.5-4.1c-2.6,1.1-5.1,2.2-7.5,3.1c-2.5,0.9-4.9,1.7-7.2,2.4
			c-2.3,0.7-4.4,1.4-6.4,1.9c-0.5,0.1-1,0.3-1.5,0.4c-0.5,0.1-1,0.2-1.4,0.3c-0.8,0.2-1.5,0.3-2.3,0.4c12.3-5.8,24.2-12.3,35.6-19.5
			c0.1,0,0.2-0.1,0.3-0.1c7.4-3.2,17.2-8.6,7.4-0.5c0.8-0.4,1.5-0.9,2.2-1.3c0.7-0.4,1.4-0.9,2.1-1.4c1.4-0.9,2.7-1.8,4-2.6
			c2.6-1.7,5-3.2,7.2-4.7c4.3-3.1,8-5.7,11.2-8c1.6-1.1,3.1-2.3,4.4-3.3c1.4-1,2.6-2,3.8-2.9c2.4-1.8,4.5-3.3,6.3-4.7
			c3.7-2.9,6.8-5.1,10.6-7.7c1.9-1.2,3.8-2.7,6-4.4c2.2-1.7,4.8-3.5,7.7-5.7c0.7-0.8,1.4-1.6,2-2.4c0.6-0.8,1.2-1.5,1.8-2.2
			c1.1-1.4,2.2-2.7,3.1-4c0.9-1.2,1.8-2.3,2.5-3.3c0.8-1,1.4-1.9,1.9-2.8c2.2-3.5,3.2-5.7,3.7-7.3c0.5-1.6,0.5-2.6,0.6-3.7
			c0.1-0.6,0.2-1.2,0.4-1.9c0.2-0.7,0.6-1.6,1.1-2.8c2.4-3.8,4.8-7.5,7.3-11c2.3-3.6,4.5-7.1,6.8-10.5c2.3-3.4,4.4-6.9,6.5-10.2
			c2.1-3.4,4.3-6.6,6.1-10c1.9-3.4,3.9-6.7,5.8-10c1.8-3.4,3.5-6.8,5.2-10.3c0.8-1.7,1.7-3.4,2.5-5.2c0.7-1.8,1.5-3.6,2.2-5.3
			c0.7-1.8,1.4-3.6,2.1-5.4c0.3-0.9,0.7-1.8,1-2.7c0.3-0.9,0.6-1.9,0.9-2.8c-0.2,3.1-0.2,4.6,0.3,4.9c0.4,0.3,1.4-0.6,2.4-2.6
			c1-2,2.3-5,3.8-8.7c0.7-1.9,1.6-3.9,2.3-6.1c0.7-2.2,1.4-4.6,2.2-7.1c0.8-2.5,1.6-5.1,2.3-7.9c0.7-2.8,1.3-5.6,2-8.5
			c0.3-1.4,0.7-2.9,1-4.4c0.3-1.5,0.7-2.9,0.9-4.4c0.5-3,1.1-6,1.6-9c1.2-6,1.7-12,2.4-17.6c0.2-1.4,0.3-2.8,0.5-4.1
			c0.2-1.4,0.2-2.7,0.3-4c0.2-2.6,0.4-5.1,0.5-7.4c0.1-1.5,0.2-2.9,0.3-4.3c0-0.7,0.1-1.3,0.1-2c0-0.6,0-1.3,0-1.9
			c0-2.4,0-4.6,0-6.5c0-3.9-0.1-6.8-0.4-9.1c-0.6-4.6-1.3-6.7-2-8.9c-0.4-1.1-0.7-2.2-1-3.6c-0.2-0.7-0.3-1.5-0.5-2.5
			c-0.1-0.9-0.3-2-0.5-3.2c-0.4-2.4-0.8-5.5-1.2-9.5c-0.1-1-0.2-2.1-0.3-3.2c-0.1-1.1-0.2-2.3-0.4-3.6c-0.3-2.5-0.7-5.3-1-8.5
			c-0.1-6.3,0.5-6.4,1.4-3.4c0.5,1.5,1,3.8,1.6,6.4c0.3,1.3,0.6,2.7,0.9,4.2c0.3,1.4,0.6,2.9,0.8,4.4c1.9,11.8,3.7,22.7,4,5.8
			c0,0-0.2-1.5-0.5-3.7c-0.1-1.1-0.3-2.4-0.5-3.8c-0.2-1.4-0.5-2.8-0.7-4.3c-1-5.8-2.1-11.7-2.1-11.7c-1.1-3.6-2.5-7-3.7-10.4
			c-0.2-0.6-0.5-1.3-0.7-1.9H0V321.2z M73.4,352.7c0.3,0.2,0.6,0.3,0.9,0.5c3.3,1.9,6.5,3.7,9,5.1c1.2,0.7,2.3,1.2,3,1.6
			c0.7,0.4,1.2,0.6,1.2,0.6c-16.9-5.4-35.2-15.2-52.3-27.4c-8.2-5.8-16.1-12.1-23.6-18.6C30.6,329.5,51.3,342.3,73.4,352.7z"/>
	</g>
	<g>
		<path fill="none" d="M134.7,245.4c0,0-0.3-0.1-0.7-0.4c-0.4-0.3-1.1-0.6-1.8-1.1c-1.5-1-3.4-2.2-5.3-3.5c-0.2-0.1-0.4-0.2-0.6-0.4
			c-13.8-6.5-26.7-14.5-38.4-23.8c4.7,4.3,9.6,8.5,14.7,12.4C112.9,236.3,124.1,242.6,134.7,245.4z"/>
		<path fill="none" d="M48.3,174.7c1,1.4,2,2.9,3,4.4c1,1.5,2.2,2.9,3.3,4.3c1.1,1.4,2.3,2.8,3.4,4.2c2.4,2.6,4.7,5.3,6.8,7.6
			c0.2,0.1,0.4,0.2,0.6,0.3c-7.8-8.4-14.8-17.5-21-27.1c0.4,0.7,0.8,1.4,1.2,2.1C46.4,171.8,47.3,173.2,48.3,174.7z"/>
		<path fill="#FDFEFF" d="M409.1,125.8c-1.3,3.2-2.2,6.4-2.8,8.8c-0.6,2.4-0.8,4-0.3,4c0.6-1.6,1.5-3.5,2.3-5.6c0.8-2,1.6-4,2.4-5.6
			l-1.6,3.2C407.2,133.9,409.3,127.4,409.1,125.8z"/>
		<path fill="#FDFEFF" d="M7,121.6c1,2.8,2.3,5.8,3.7,9.4c-0.7-1.8-1.4-3.5-2-5.3C8,123.9,7.5,122,7,120.2c-0.5-1.8-1-3.6-1.5-5.3
			c-0.4-1.8-0.8-3.5-1.2-5.1c-0.8-3.3-1.6-6.4-2.2-9.1c-0.6-2.3-1.3-4.4-2.1-6.1v1.7c0.5,3.2,1.1,6,1.6,8.5c0.8,3.2,1.6,6,2.5,8.7
			c0.4,1.4,0.9,2.7,1.4,4C6,118.9,6.5,120.2,7,121.6z"/>
		<path fill="#FDFEFF" d="M13.2,61.9c0,33.5,8.4,65.1,23.2,92.7c-2.5-4.3-5.2-9.2-7.2-13.6c-0.5-1-1-1.8-1.4-2.7
			c-0.4-0.9-0.8-1.7-1.2-2.4c-0.7-1.5-1.4-2.7-2-3.5c-1.1-1.6-1.8-1.4-1.7,1.4c-0.4-1.1-0.9-2.3-1.3-3.4c-0.4-1.2-0.8-2.4-1.2-3.6
			c-0.4-1.2-0.8-2.4-1.2-3.6c-0.2-0.6-0.4-1.2-0.6-1.8c-0.2-0.6-0.3-1.2-0.5-1.9c-0.7-2.5-1.4-5-2.1-7.6c-0.6-2.6-1.1-5.2-1.7-7.9
			c-2.1-10.7-3.5-21.9-4-33.3c-1-22.8,1.9-46.2,7.1-67.2c0.7-0.7,1.5-1.9,2.2-3.5H15c-0.3,0.7-0.6,1.4-0.8,2
			c-1.1,2.8-2.2,5.3-3.3,7.7c-1,2.4-1.9,4.8-2.9,7.3c-0.5,1.2-1,2.4-1.4,3.7c-0.4,1.3-0.8,2.6-1.3,3.9c-0.9,2.7-1.8,5.6-2.4,8.9
			C2.1,36.8,1.4,40.4,1,44.6c-0.2,2.1-0.4,4.3-0.6,6.6c-0.1,2.3-0.1,4.8-0.1,7.4c1.6,1.2,1.7-5.5,3-2.5C3.5,59,3.6,61,3.9,62.7
			c0.3,1.7,0.6,3.1,0.8,4.7c0.3,1.6,0.4,3.4,0.7,6c0.3,2.6,0.5,5.9,0.8,10.5c0,4.8,0.3,9.3,1.3,13.6c0.5,2.2,0.9,4.3,1.5,6.5
			c0.6,2.1,1.3,4.2,2,6.4c0.3,1.1,0.7,2.1,1,3.2c0.4,1.1,0.8,2.1,1.2,3.2c0.8,2.2,1.5,4.4,2.3,6.6c0.8,2.2,1.7,4.6,2.4,7
			c0.2,0.6,0.4,1.2,0.6,1.8c0.2,0.6,0.4,1.2,0.6,1.9c0.4,1.3,0.8,2.5,1.2,3.9c0.1,2.5-0.6,2.4-1.6,0.8c-0.5-0.8-1.1-1.9-1.8-3.2
			c-0.7-1.3-1.4-2.8-2-4.4c-1.3-3.2-2.6-6.5-3.6-8.8c-0.9-2.3-1.6-3.5-1.9-2.4c0,0,0.1,0.7,0.3,1.6c0.2,1,0.3,2.3,0.6,3.6
			c0.5,2.6,1.1,5.2,1.1,5.2c0.5,1.4,1,2.9,1.5,4.4c0.5,1.5,1.1,3,1.6,4.6c0.5,1.6,1,3.2,1.6,4.8c0.6,1.6,1.2,3.2,1.8,4.8
			c0.6,1.6,1.2,3.1,1.9,4.6c0.7,1.5,1.4,2.9,2.1,4.2c0.7,1.3,1.5,2.6,2.2,3.8c0.7,1.2,1.6,2.2,2.5,3.1l-1,1c1.2,1.7,2.4,3.6,3.7,5.6
			c1.4,1.9,2.8,4,4.2,6.1c1.4,2.1,3,4.2,4.5,6.2c1.6,2.1,3.1,4.2,4.7,6.1c1.6,1.9,3.2,3.8,4.7,5.6c1.6,1.7,3.2,3.4,4.6,4.8
			c2.9,3,5.7,5.2,7.7,6.5c8.8,9.9,19,19,30.4,26.8c11.3,7.9,23.7,14.5,36.7,19.8c13,5.3,26.6,9.2,40.4,11.7
			c13.8,2.5,27.8,3.7,41.5,3.8c0,0,0.2,0,0.5,0.1c0.3,0.1,0.7,0.2,1.2,0.2c1,0.2,2.4,0.4,3.7,0.7c2.7,0.5,5.4,1,5.4,1
			c4.1-0.1,7.5-0.4,10.4-0.6c2.9-0.3,5.3-0.7,7.3-1c2-0.4,3.6-0.7,4.9-1.1c1.3-0.4,2.4-0.8,3.3-1.2c1.9-0.8,3.2-1.6,4.9-2.4
			c1.7-0.8,3.8-1.8,7.3-2.9c3.5-0.4,2.5,1.1,4.4,1.3c7.8-2.7,6.4-2.7,3.7-2.4c-2.6,0.3-6.4,1-3.5-0.3c4-1.2,8.2-2.4,12.4-4
			c2.1-0.8,4.2-1.5,6.3-2.3c2.1-0.8,4.1-1.7,6.1-2.5c2-0.8,4-1.7,5.8-2.5c1.9-0.8,3.7-1.6,5.4-2.3c3.4-1.5,6.5-2.7,9.2-3.5
			c0,0,0.2-0.4,0.4-1c0.2-0.6,0.5-1.5,0.8-2.3c0.6-1.7,1.1-3.3,1.1-3.3c-1.7,0.6-3.3,1.1-4.9,1.6c-1.6,0.4-3.2,0.8-4.6,1.1
			c-2.8,0.6-5.4,1-7.6,1c7.5-3.5,14.8-7.5,21.7-11.9c0.1,0,0.2-0.1,0.3-0.1c4.8-1.6,11.1-4.5,5.3,0.8c1.9-1,3.6-2.1,5.2-3.1
			c1.6-1,3.1-1.9,4.5-2.8c2.7-1.8,5.1-3.4,7.1-4.8c2-1.4,3.7-2.6,5.2-3.7c1.5-1.1,2.9-1.9,4.1-2.7c2.4-1.7,4.5-2.9,7-4.3
			c1.3-0.7,2.6-1.5,4.1-2.4c1.5-0.9,3.3-2,5.3-3.2c1.8-2.1,3.1-3.9,4.2-5.4c1.1-1.6,2-2.8,2.6-4c1.2-2.3,1.7-3.8,1.8-4.9
			c0.2-2.3-0.7-3.1,0.3-6c1.4-2.4,2.9-4.7,4.3-6.9c1.4-2.2,2.8-4.4,4.2-6.5c1.5-2.1,2.8-4.2,4.1-6.2c1.3-2.1,2.8-4,4-6.1
			c1.3-2.1,2.5-4.1,3.8-6.1c1.2-2.1,2.3-4.2,3.4-6.3c0.5-1.1,1.1-2.1,1.6-3.2c0.5-1.1,0.9-2.2,1.4-3.3c0.4-1.1,0.9-2.2,1.3-3.4
			c0.4-1.1,0.8-2.3,1.1-3.4c0.1,2,0.4,3,0.9,3.3c0.5,0.2,1.2-0.3,2-1.5c0.8-1.2,1.7-3,2.7-5.3c0.5-1.2,1.1-2.4,1.5-3.8
			c0.5-1.4,1-2.9,1.5-4.4c0.5-1.6,1-3.2,1.5-4.9c0.4-1.7,0.8-3.5,1.3-5.3c0.4-1.8,0.9-3.6,1.2-5.5c0.3-1.9,0.7-3.8,1-5.6
			c0.7-3.7,1-7.5,1.5-11c0.5-3.5,0.6-6.8,0.8-9.8c0.4-3.8,0.3-6.8,0.3-9.2c-0.1-2.4-0.2-4.2-0.4-5.7c-0.5-2.9-1.2-4.2-1.9-5.5
			c-0.7-1.3-1.3-2.7-1.9-5.7c-0.3-1.5-0.7-3.4-1-5.9c-0.2-1.2-0.2-2.7-0.5-4.2c-0.2-1.6-0.4-3.3-0.6-5.3c0.2-4,0.8-4,1.6-2.2
			c0.8,1.8,1.8,5.6,2.6,9.3c1.5,7.3,3.1,14.2,3.8,3.5c0,0-0.1-0.9-0.4-2.3c-0.1-0.7-0.2-1.5-0.4-2.4c-0.2-0.9-0.4-1.8-0.5-2.7
			c-0.8-3.6-1.5-7.3-1.5-7.3c-0.9-2.2-2-4.3-3-6.4c-1-2-2-4-3.1-6.1c-1.1-2-2.2-4.1-3.3-6.3c-1.1-2.2-2.3-4.5-3.5-7
			c-0.5-1.6-1-3.4-1.6-5.2H23.1C16.7,19.5,13.2,40.3,13.2,61.9z M126.3,240c0.2,0.1,0.4,0.2,0.6,0.4c1.9,1.3,3.9,2.5,5.3,3.5
			c0.7,0.5,1.4,0.8,1.8,1.1c0.4,0.3,0.7,0.4,0.7,0.4c-10.6-2.8-21.8-9.1-32.1-16.8c-5.1-3.9-10.1-8.1-14.7-12.4
			C99.6,225.5,112.5,233.5,126.3,240z M65.5,195.4c-0.2-0.1-0.4-0.3-0.6-0.3c-2.2-2.3-4.4-5-6.8-7.6c-1.2-1.4-2.3-2.8-3.4-4.2
			c-1.1-1.4-2.3-2.8-3.3-4.3c-1-1.5-2.1-2.9-3-4.4c-1-1.4-1.9-2.8-2.7-4.3c-0.4-0.7-0.8-1.4-1.2-2.1C50.7,178,57.7,187,65.5,195.4z"
			/>
	</g>
	<g>
		<path fill="#131C46" d="M659.3,191.6c-1.7-2-9.3-9.4-9.3-9.4s-9.4-21-11-23.7c-1.6-2.7-10-12.3-11.2-14.4
			c-1.2-2.1-6.6-13.3-9.2-19.7c-2.7-6.4-10.1-12.5-10.1-12.5v-5l-11-3.9l-1.7,1.6h-2.4l-0.5-6.8c3.4-2.3,5.9-8,5.9-8h2.3l1.1-6
			l-2.3-1.6c0,0-0.4-6.4-1.8-9.6c-1.4-3.2-8.5-5.2-8.5-5.2s-6.6-0.6-8.8,0c-2.1,0.6-4.5,8.2-4.5,8.2l-3.3,1.2l-0.7,7.8l2.1,0.9
			c-0.5,5.5,0.5,18,0.5,18l-4-1.2v-3.8l-9.2-1.1l-1.1,2.2c-3.2-0.2-9.2-0.4-13.8,1.2c-6.5,2.3-18.4,5.9-20.8,6.4
			c-2.4,0.5-15.1,0.8-18.2,1.4c-3.1,0.6-25.1,7.7-25.1,7.7s-10.8,0.4-13.4,0.8c-2.6,0.4-9.8,2.4-9.8,2.4s2.6,2.6,5.4,2.7
			c2.8,0.1,7.9-1.6,9.9-0.9c2,0.6,3.7,1.2,3.7,1.2s-1.7,3.3-2.8,4.5c-1.1,1.2-3.7,2.8-3,6.6c0,0,6.6-4.1,7.8-5.3c1-1,4.2-6.2,5-7.4
			l0,0c0,0,19.4-0.6,25.2,0.2c5.8,0.8,13.3-1.2,13.3-1.2l30.1-1l-0.2,7l-14.7,35.7c0,0,2,3,6.5,5.5c-1.6,3.6-3.3,8.1-4.9,13.4
			c-5.5,18.4-24.4,50.3-24.4,50.3s-9.2,6.9-13.8,12.1c-4.5,5.2-19.2,27-19.2,27c-13.3,9.7-34.4,36.1-34.4,36.1
			c5.7,14,20.9,18,20.9,18c7.6-19,19.7-48.1,19.7-48.1s29.4-25.1,38.9-34.6c9.5-9.5,28.7-34.4,28.7-34.4l-6.9,38.4
			c0,0-10.7,8.5-15.7,15.2c-5,6.6-10.4,30.8-10.4,30.8l-2.8,3.3c0,0,0,9.5,0.2,11.9c0.2,2.4-5,33-5,33c14,8.3,23,5,23,5
			c-4.5-15.4-7.6-50.8-7.6-50.8c6.2-10.9,28.9-37,28.9-37s5.5-10.7,13-27.5c7.6-16.8,20.4-58.8,20.4-58.8c9.2-15.7,13-29.6,13-29.6
			l12.5,13.2c0,0,3.6,6.9,8.1,10.7s17.1,18.5,17.1,18.5s-1.4,7.5-1.3,9.2c0.1,1.7,2.3,9.1,2.3,9.1c3.1-2.4,2.1-5.3,2.1-6.9
			c0-1.6,0.9-5.2,0.9-5.2s1.7,0.7,3.6,1.6c1.9,0.9,4.6,5.5,6.8,7.3c2.1,1.8,5.8,1.5,5.8,1.5S661,193.6,659.3,191.6z"/>
		<path fill="#131C46" d="M623.2,257.7c0,0,17.4-16.4,25.9-16c8.5,0.3,52.6-1.4,55.3,0c2.7,1.4,13.3,3.1,13.3,3.1s12.6,0,16.7,0.7
			s47.5,17.4,50.5,19.1c3.1,1.7,10.9,10.9,10.9,13.5c0,2.6-8.9,16.9-8.9,16.9s-39.9-4.4-42.7-2c-2.7,2.4-9.9,42.7-13.7,56.3
			c-3.8,13.7-9.2,27.7-9.2,27.7s27,29.7,34.8,44.7c7.9,15,7.2,38.6,3.8,40.3c0,0-20.5-18.1-34.8-27c-14.3-8.9-35.5-14-35.5-14
			s-32.4,46.8-77.5,59.4c0,0,0.3,11.3-2.7,24.9c-3.1,13.7-12.3,22.9-12.3,22.9s-7.2-24.6-18.4-29.4c0,0-21.2,1.4-46.8-0.3
			c0,0-7.5,8.2-24.9,11.9c0,0,1-8.2-2-14c0,0-33.5-1.7-57.4-10.9c0,0-21.5,16.4-51.2,11.6c0,0,19.5-13,24.2-26.6
			c0,0-20.8-28.3-32.1-56.7c-11.3-28.3-30.4-74.4-30.4-74.4s11.6,5.1,34.1,49.5c22.5,44.4,59.4,75.1,59.4,75.1s32.8,0.3,48.1-1
			c0,0-3.4-10-5.8-15.1c0,0,12.3,2.1,21.8,12.4c0,0,67.6-8.5,115.1-67.3c0,0-29.4,7.5-52.2,5.5c0,0,31.4-8.9,53.6-22.2l-8.9-20.8
			c0,0,13.7-5.8,31.7-2c0,0,0.7-23.2,6.5-35.2c5.8-11.9,6.1-36.9,6.1-36.9s-13.7-7.2-43-8.5L623.2,257.7z"/>
	</g>
</g>
</svg>
