<?xml version="1.0" standalone="no"?>
<!DOCTYPE svg PUBLIC "-//W3C//DTD SVG 20010904//EN"
 "http://www.w3.org/TR/2001/REC-SVG-20010904/DTD/svg10.dtd">
<svg version="1.0" xmlns="http://www.w3.org/2000/svg"
 width="1166.000000pt" height="1280.000000pt" viewBox="0 0 1166.000000 1280.000000"
 preserveAspectRatio="xMidYMid meet">
<metadata>
Created by potrace 1.15, written by Peter Selinger 2001-2017
</metadata>
<g transform="translate(0.000000,1280.000000) scale(0.100000,-0.100000)"
fill="#5b90ad" stroke="none">
<path d="M9157 12790 c-97 -25 -181 -96 -226 -190 -25 -52 -26 -64 -28 -235
-2 -172 -22 -403 -43 -510 -20 -95 -86 -175 -147 -175 -54 0 -38 -75 35 -165
69 -85 79 -108 85 -212 5 -78 2 -104 -19 -180 -24 -86 -24 -97 -24 -435 0
-232 -5 -428 -17 -590 -19 -277 -23 -825 -6 -928 9 -52 7 -122 -12 -360 -13
-162 -29 -387 -35 -500 -14 -251 -14 -810 0 -980 5 -69 13 -159 16 -200 4 -46
-2 -161 -15 -295 -11 -121 -26 -287 -32 -370 -17 -214 -17 -613 0 -768 14
-124 14 -132 -7 -215 -64 -260 -93 -607 -74 -895 12 -172 4 -211 -54 -271 -69
-71 -149 -92 -389 -102 -88 -4 -166 -11 -172 -17 -16 -12 -17 -49 -1 -65 17
-17 292 -15 392 3 149 26 258 103 303 210 17 41 21 45 54 45 34 0 36 -2 52
-54 33 -103 103 -181 287 -316 47 -35 109 -83 138 -108 46 -39 52 -49 52 -83
l0 -39 -69 0 c-39 0 -130 -9 -203 -20 -114 -16 -189 -19 -521 -20 -275 0 -395
4 -410 12 -12 6 -64 50 -115 98 -51 47 -117 99 -147 114 -61 30 -58 23 -70
196 -14 205 -64 309 -177 366 l-49 25 -60 -25 c-33 -13 -84 -38 -113 -56 l-53
-32 -12 -126 c-7 -70 -17 -148 -23 -173 -11 -46 -14 -49 -82 -83 -39 -20 -116
-70 -171 -111 -55 -42 -131 -91 -170 -111 -218 -110 -296 -153 -337 -187 l-46
-38 -143 3 c-164 2 -218 -11 -244 -62 -24 -47 -115 -66 -355 -75 -350 -14
-393 -31 -695 -264 -155 -121 -240 -166 -400 -216 -66 -20 -138 -46 -160 -57
-64 -33 -149 -122 -314 -328 -172 -215 -308 -357 -394 -410 -60 -37 -76 -62
-57 -85 19 -23 36 -18 98 22 93 62 236 207 380 388 262 328 269 335 467 397
201 63 252 92 490 277 141 110 241 165 325 181 30 6 149 15 265 20 147 7 233
15 285 29 l75 19 57 -54 c106 -101 216 -136 478 -154 180 -13 260 -24 321 -45
65 -23 110 -4 93 39 -12 32 -128 62 -294 76 -256 21 -331 31 -386 50 -74 26
-131 60 -173 104 l-34 35 28 11 c18 7 82 9 172 6 135 -5 146 -6 173 -30 37
-31 117 -48 206 -44 61 3 71 1 87 -20 56 -68 180 -119 297 -123 44 -1 95 -9
123 -20 26 -11 56 -19 66 -19 11 0 41 -15 69 -33 61 -41 140 -62 297 -77 66
-7 148 -18 183 -26 66 -15 142 -48 142 -63 0 -15 -72 -73 -114 -92 -74 -33
-123 -26 -243 37 -92 48 -112 55 -146 51 -57 -8 -66 -22 -26 -42 62 -32 88
-65 51 -65 -34 0 -122 -52 -157 -92 -19 -23 -46 -71 -60 -108 -26 -68 -71
-122 -113 -135 -31 -9 -186 66 -229 112 -22 23 -40 33 -55 31 -65 -9 -3 -88
120 -151 l82 -43 -39 -60 c-21 -32 -56 -76 -78 -97 l-40 -38 -84 17 c-96 19
-437 30 -533 17 -65 -9 -89 -30 -70 -60 10 -16 36 -18 265 -19 220 -1 267 -4
348 -22 l93 -21 45 37 c45 38 123 133 149 184 8 15 21 28 30 28 30 0 93 40
130 84 38 43 42 44 144 65 129 25 234 59 361 117 53 24 101 44 106 44 6 0 29
13 51 30 23 16 43 30 44 30 2 0 1 -51 -2 -114 l-5 -115 -185 -232 c-405 -509
-640 -733 -947 -900 -49 -26 -63 -39 -63 -57 0 -36 26 -37 93 -2 317 168 588
429 1027 990 63 80 155 190 204 245 50 55 103 115 117 134 20 25 39 36 79 45
56 13 78 32 67 60 -8 20 -36 20 -105 2 l-52 -13 0 28 c0 33 31 69 58 69 31 0
127 38 137 54 7 11 5 20 -7 33 -16 15 -21 15 -80 -3 -35 -10 -65 -18 -67 -16
-2 1 -4 18 -4 38 l0 37 118 44 c144 53 255 85 255 72 0 -15 77 -10 138 10 31
10 73 22 94 25 20 4 81 29 137 56 110 55 161 63 228 35 20 -8 37 -14 38 -13 2
2 13 28 25 58 24 57 52 95 83 112 14 7 34 2 85 -25 37 -19 92 -42 122 -51 87
-26 238 -31 361 -12 123 20 513 119 535 136 24 20 18 69 -11 82 -20 9 -62 1
-247 -45 -285 -72 -337 -81 -467 -74 -116 5 -180 22 -256 66 l-50 29 3 50 4
50 131 35 c73 19 154 40 182 46 64 15 151 51 352 145 191 89 301 123 440 137
116 11 168 3 216 -33 76 -57 252 -152 397 -213 137 -59 334 -124 341 -113 17
27 31 134 27 202 -6 91 -42 172 -153 342 -75 114 -135 226 -135 250 0 8 -28
13 -77 16 -108 5 -150 29 -312 175 -158 144 -204 168 -309 160 -107 -8 -175
-50 -329 -200 -115 -112 -133 -126 -133 -105 0 37 -21 51 -55 38 -36 -14 -41
-7 -49 83 -4 40 -13 142 -21 227 -28 299 -51 699 -80 1430 -9 206 -20 447 -25
535 -5 88 -12 237 -15 330 -25 749 -30 819 -70 992 -14 61 -14 75 1 166 19
117 15 247 -11 322 -15 43 -18 100 -20 430 -2 343 -4 401 -28 590 -51 403 -54
430 -45 433 11 5 11 482 -1 482 -4 0 -11 91 -14 203 -4 111 -12 237 -20 280
-7 42 -10 77 -6 77 5 0 6 21 2 48 -7 62 8 113 58 196 46 77 63 127 54 157 -4
13 -28 30 -58 44 -72 32 -83 48 -95 138 -8 64 -17 89 -47 133 -33 51 -35 56
-20 77 12 17 15 58 15 218 0 116 5 219 12 248 14 62 3 90 -61 163 -79 89 -230
136 -344 108z m-67 -520 c0 -37 -2 -40 -40 -51 -49 -15 -70 -1 -70 46 0 42 5
45 62 45 l48 0 0 -40z m155 -19 c33 -11 52 -20 42 -20 -27 -1 -106 20 -113 30
-7 13 3 11 71 -10z m242 -293 c6 -5 21 -28 32 -50 20 -41 20 -42 1 -55 -15
-11 -20 -26 -20 -59 l0 -46 -51 45 c-90 79 -194 117 -357 133 -63 6 -71 9 -60
21 8 7 34 17 59 22 54 11 380 2 396 -11z m50 -742 c16 -16 46 -377 36 -439 -8
-52 -31 -45 -63 18 -23 46 -28 50 -60 50 -32 0 -36 -4 -49 -40 -7 -22 -16 -80
-19 -128 -8 -143 31 -212 115 -206 l38 4 -3 -45 c-2 -25 -19 -85 -38 -134 -40
-103 -36 -116 32 -116 51 0 44 22 74 -230 52 -430 69 -712 53 -879 l-8 -84
-58 -3 c-32 -2 -73 -11 -93 -20 l-35 -17 2 -188 c1 -196 4 -211 46 -224 17 -4
29 1 48 19 14 14 25 32 25 39 0 8 7 17 15 21 11 4 15 22 15 69 0 47 4 68 16
78 13 10 17 10 25 -2 32 -49 40 -206 18 -319 -10 -52 -19 -67 -70 -120 -48
-50 -74 -92 -146 -236 -83 -167 -87 -177 -69 -190 13 -9 24 -10 37 -4 10 6 54
81 98 168 71 141 140 245 154 232 9 -8 36 -150 47 -245 16 -140 33 -779 20
-783 -35 -12 -78 -67 -116 -147 -24 -49 -52 -103 -63 -119 -23 -34 -18 -56 13
-56 25 0 51 36 100 141 20 41 47 86 61 99 l25 23 0 -39 c0 -21 4 -111 10 -199
5 -88 16 -329 25 -535 36 -890 68 -1395 105 -1681 5 -40 10 -113 10 -161 0
-51 8 -123 20 -173 11 -47 20 -114 20 -149 0 -79 -23 -113 -138 -209 -45 -37
-92 -81 -105 -97 -20 -24 -48 -36 -147 -64 -68 -20 -125 -38 -128 -41 -3 -3
-10 5 -16 18 -8 15 -21 22 -43 23 -25 0 -46 13 -90 55 -32 31 -110 94 -173
141 -179 133 -237 206 -255 315 -7 46 -19 53 -97 53 -45 0 -47 1 -52 33 -3 17
-8 95 -11 172 -14 333 51 829 117 890 35 32 94 107 101 128 7 19 -32 67 -54
67 -6 0 -24 -13 -39 -30 l-28 -30 -6 68 c-22 262 -15 489 30 998 l26 291 74
79 c78 83 90 115 53 135 -19 10 -27 5 -74 -45 l-53 -55 -6 37 c-3 20 -11 129
-17 242 -19 345 -4 838 46 1434 l15 179 60 56 c39 37 75 84 105 141 48 88 54
124 23 144 -28 17 -48 -2 -98 -92 -53 -97 -85 -140 -95 -130 -29 28 -31 429
-5 853 11 176 20 373 20 437 0 108 2 119 23 142 12 13 33 55 46 93 13 37 30
78 38 91 17 28 12 37 -40 63 -72 36 -87 56 -87 113 0 57 36 203 56 227 8 8 14
22 14 29 0 11 53 12 297 7 163 -4 298 -9 300 -11z m-1987 -6814 c39 -39 59
-114 70 -267 6 -71 13 -140 15 -153 3 -12 -4 -40 -17 -65 -20 -36 -23 -59 -25
-157 -1 -66 -7 -128 -14 -145 -30 -72 -5 -167 62 -234 41 -41 104 -73 137 -69
62 7 105 186 68 283 -21 55 -58 85 -102 85 l-34 0 0 68 c0 37 3 77 6 89 6 21
8 22 35 7 16 -8 69 -52 117 -97 48 -45 101 -91 117 -103 28 -19 30 -26 30 -80
-1 -110 -17 -319 -26 -334 -23 -41 -24 -41 -61 -25 -54 22 -108 32 -272 50
-145 16 -218 33 -261 61 -17 11 -22 25 -24 60 0 26 -11 78 -22 116 -23 73 -22
99 6 198 21 76 19 204 -4 279 -19 60 -19 62 1 124 10 34 24 113 30 175 l12
113 45 24 c60 31 77 31 111 -3z m-282 -562 c3 -63 -1 -100 -15 -145 -18 -56
-21 -60 -47 -57 -52 7 -66 -19 -66 -124 0 -51 -3 -99 -6 -108 -5 -12 -21 -16
-68 -16 -50 0 -75 6 -123 30 -90 45 -92 48 -94 175 l-2 109 62 33 c33 17 98
60 143 94 45 35 106 78 137 96 51 30 56 32 65 16 5 -10 12 -56 14 -103z m1370
-185 c3 -2 -5 -40 -16 -84 -12 -43 -22 -103 -22 -132 l0 -54 -63 -18 c-34 -10
-117 -38 -183 -63 -67 -24 -129 -42 -137 -38 -9 3 -37 -4 -63 -15 -70 -31 -74
-30 -74 37 0 31 3 66 6 77 3 14 51 43 148 93 139 71 256 156 256 187 0 8 10
16 23 18 25 6 117 0 125 -8z m222 -158 l5 -58 -39 -10 c-34 -9 -42 -8 -53 7
-18 25 -17 28 20 78 43 61 61 56 67 -17z"/>
<path d="M9522 6654 c-21 -14 -22 -23 -22 -134 0 -129 8 -150 55 -150 47 0 55
21 55 150 0 111 -1 120 -22 134 -12 9 -27 16 -33 16 -6 0 -21 -7 -33 -16z"/>
<path d="M9650 4844 c-35 -30 -140 -179 -140 -199 0 -8 5 -17 10 -20 22 -14
51 10 96 78 26 40 60 84 75 99 50 46 11 86 -41 42z"/>
<path d="M7118 7789 c-25 -14 -22 -53 7 -98 43 -64 100 -79 219 -57 52 9 90
11 110 5 49 -14 74 -11 86 11 36 68 -59 108 -198 84 -103 -18 -98 -19 -142 26
-41 42 -53 46 -82 29z"/>
<path d="M7260 7463 c0 -46 34 -90 80 -104 48 -15 126 -1 180 33 l35 21 -35
15 c-41 17 -157 47 -217 56 -42 6 -43 5 -43 -21z"/>
<path d="M7473 7263 c-29 -4 -33 -8 -33 -33 0 -35 20 -43 101 -38 51 3 54 5
57 30 5 42 -30 53 -125 41z"/>
<path d="M6780 7217 c-13 -7 -30 -24 -37 -37 -11 -22 -10 -27 10 -42 49 -39
80 -48 125 -36 37 9 42 14 42 40 0 42 -15 64 -51 77 -41 14 -58 14 -89 -2z"/>
<path d="M5650 6722 c0 -30 -33 -79 -75 -112 -54 -43 -75 -78 -75 -127 0 -38
2 -42 31 -48 22 -5 43 -1 77 17 99 50 147 200 86 262 -31 30 -44 33 -44 8z"/>
<path d="M6112 6518 c-17 -17 -15 -53 3 -68 8 -7 53 -15 99 -17 69 -5 90 -3
111 11 28 18 33 47 11 65 -20 17 -209 24 -224 9z"/>
<path d="M5561 5100 c-60 -29 -67 -30 -115 -20 -68 15 -146 10 -159 -11 -15
-25 0 -68 26 -73 12 -2 62 -13 111 -25 l89 -20 64 35 c39 22 84 39 116 43 44
5 53 10 61 33 25 72 -79 92 -193 38z"/>
<path d="M6077 4852 c-21 -23 -21 -41 -1 -70 13 -19 24 -22 92 -22 86 0 96 4
111 41 7 20 6 32 -5 48 -13 19 -25 21 -98 21 -68 0 -86 -3 -99 -18z"/>
<path d="M5612 4613 c4 -49 40 -75 112 -81 85 -7 137 40 106 97 -10 19 -19 21
-116 21 l-105 0 3 -37z"/>
<path d="M4835 4409 c-22 -10 -56 -19 -75 -19 -52 0 -82 -25 -78 -63 2 -24 11
-35 33 -46 54 -26 205 21 220 70 18 56 -35 87 -100 58z"/>
<path d="M5553 4415 c-17 -7 -37 -24 -44 -36 -10 -20 -8 -26 20 -51 40 -35 89
-38 118 -5 22 23 45 91 35 101 -10 11 -97 5 -129 -9z"/>
<path d="M5834 3245 c-287 -50 -599 -215 -931 -490 -140 -116 -503 -473 -503
-496 0 -23 25 -42 48 -35 10 4 59 48 108 98 447 462 831 728 1190 824 78 21
129 27 244 31 162 6 216 -1 367 -48 84 -27 105 -30 118 -19 47 39 -3 72 -175
117 -120 32 -341 40 -466 18z"/>
<path d="M10880 2639 c-147 -21 -348 -64 -687 -148 -439 -109 -535 -129 -878
-181 -334 -51 -414 -65 -536 -96 -288 -72 -473 -170 -679 -358 -171 -157 -262
-207 -550 -302 -310 -101 -414 -152 -617 -302 -134 -99 -198 -137 -271 -161
-61 -20 -192 -33 -192 -18 0 4 -23 32 -50 61 -50 53 -70 94 -62 129 3 14 15
17 72 17 86 0 119 25 90 70 -7 11 -24 14 -67 12 -352 -17 -345 -16 -414 -49
-36 -17 -115 -64 -175 -104 -149 -100 -197 -119 -289 -112 -72 6 -72 6 -79
-22 -5 -20 0 -41 19 -76 39 -76 36 -86 -33 -86 -41 -1 -81 -10 -138 -33 -43
-17 -103 -34 -131 -37 -47 -5 -53 -4 -53 13 1 10 7 30 15 44 8 14 14 31 15 38
0 20 -58 14 -128 -14 -111 -44 -189 -54 -507 -64 -321 -9 -410 -21 -520 -67
-33 -14 -69 -25 -79 -24 -10 0 -32 16 -49 37 -28 34 -33 36 -76 31 -39 -4 -51
-12 -89 -56 -37 -43 -49 -51 -78 -51 -19 0 -34 5 -34 10 0 6 -11 22 -25 35
-18 19 -35 25 -66 25 -29 0 -57 9 -93 31 -105 65 -246 106 -409 118 -121 10
-157 1 -157 -39 0 -29 25 -37 130 -43 52 -3 136 -15 185 -27 88 -21 235 -86
243 -108 2 -6 -14 -16 -35 -22 -74 -21 -196 -27 -465 -23 -261 5 -278 6 -398
35 -91 22 -154 31 -232 33 -112 3 -162 19 -174 57 -7 24 -76 41 -127 32 -23
-3 -70 -17 -104 -30 -35 -13 -73 -24 -84 -24 -19 0 -20 4 -14 38 10 52 17 58
88 72 34 6 70 19 80 27 25 23 22 60 -5 69 -13 4 -56 29 -96 56 -66 44 -75 48
-90 35 -9 -8 -54 -33 -100 -57 -45 -23 -88 -52 -94 -64 -6 -11 -21 -33 -34
-48 -12 -15 -28 -44 -34 -65 -7 -21 -15 -41 -19 -45 -11 -12 -108 17 -321 93
-107 39 -229 80 -270 91 -95 24 -221 26 -290 3 -58 -19 -145 -94 -175 -149
-13 -25 -30 -39 -50 -44 -16 -5 -36 -20 -44 -34 -13 -23 -13 -29 3 -53 l18
-28 107 7 c119 7 176 -1 316 -44 62 -19 127 -31 199 -36 59 -4 109 -10 112
-15 2 -4 43 -20 89 -34 99 -30 133 -57 111 -89 -19 -30 -55 -46 -102 -46 -31
0 -56 10 -102 40 -119 76 -110 75 -204 36 -265 -109 -537 -136 -736 -71 -80
25 -84 26 -98 8 -48 -60 -75 -159 -60 -217 9 -37 82 -56 216 -56 97 0 180 12
434 60 85 17 101 9 135 -58 45 -89 35 -86 236 -73 101 6 477 11 894 11 826 0
997 9 1306 71 l100 20 60 -27 c51 -23 77 -27 180 -31 101 -4 155 0 335 28 235
35 400 43 463 21 45 -17 46 -26 5 -49 -26 -14 -57 -18 -144 -18 -123 0 -144
-8 -144 -56 0 -40 34 -59 118 -66 144 -12 270 35 312 117 16 32 25 40 38 35
112 -47 275 -75 453 -76 170 -2 454 10 496 21 17 4 34 6 37 3 3 -3 51 -6 108
-8 57 -2 140 -8 185 -15 46 -7 114 -10 153 -8 63 3 74 7 101 35 31 30 62 114
52 140 -9 23 -74 36 -147 30 -74 -6 -136 7 -144 31 -2 6 2 12 9 12 6 0 17 7
24 16 18 25 254 21 360 -6 43 -11 89 -20 102 -20 29 0 29 -13 2 -79 -12 -28
-19 -55 -15 -59 18 -17 87 -3 148 32 74 41 145 49 169 19 50 -60 166 -67 377
-23 165 34 275 46 567 60 299 14 1152 12 1760 -5 286 -8 691 -15 901 -15 l381
0 22 -24 c72 -77 214 -87 476 -36 180 35 346 49 394 32 l31 -11 -3 285 c-2
256 -4 284 -18 284 -9 0 -97 21 -195 46 -99 25 -214 48 -257 51 -71 5 -80 8
-100 35 -52 70 -75 88 -110 88 -19 0 -40 -7 -47 -15 -10 -12 -6 -19 20 -42 18
-16 44 -35 59 -43 52 -31 71 -45 71 -53 0 -4 -4 -6 -9 -3 -13 8 -41 -4 -41
-18 0 -8 -65 -11 -239 -10 -253 2 -322 12 -372 53 -33 27 -17 51 46 71 26 9
57 27 69 41 12 15 41 31 68 39 41 11 52 10 82 -4 43 -20 88 -20 126 -1 27 14
30 20 30 64 0 56 -28 101 -64 101 -18 0 -27 11 -45 54 -25 60 -35 66 -122 66
-43 0 -70 -7 -115 -30 -33 -16 -61 -25 -64 -20 -4 6 -35 2 -78 -10 -39 -11
-99 -20 -132 -20 -71 0 -71 0 -40 118 26 103 62 190 118 287 66 112 227 273
342 339 100 59 113 71 99 97 -15 29 -38 23 -131 -32 -271 -162 -454 -431 -518
-762 -6 -31 -15 -55 -19 -52 -11 6 -91 -25 -113 -43 -10 -8 -18 -26 -18 -39
l0 -24 163 3 c145 2 167 0 192 -16 l28 -18 -79 -37 c-44 -21 -133 -68 -199
-106 -66 -37 -148 -81 -183 -96 l-63 -29 -37 25 c-33 22 -47 25 -134 25 -53 0
-127 -7 -165 -16 -45 -10 -90 -14 -133 -10 -126 11 -217 15 -385 20 -160 5
-305 22 -385 46 -44 13 -271 25 -455 24 -146 -1 -216 -14 -298 -55 -37 -19
-60 -20 -526 -19 -401 0 -500 -2 -560 -15 -142 -30 -176 -18 -176 61 0 68 32
94 131 104 132 14 225 58 407 192 202 149 298 196 618 301 288 96 382 147 550
303 194 179 360 271 613 339 133 35 207 49 541 100 377 58 471 77 888 181 366
91 575 135 732 154 111 14 135 22 135 48 0 43 -37 49 -170 31z m-4632 -1427
c-3 -59 -11 -83 -61 -182 l-58 -114 -37 3 c-20 2 -46 8 -57 14 -12 7 -87 14
-178 17 l-159 5 -25 29 -25 30 34 12 c59 20 140 65 218 118 151 106 216 134
304 135 l48 1 -4 -68z m4297 -42 c0 -33 -1 -34 -57 -48 -70 -17 -88 -12 -88
27 0 24 6 32 38 45 20 8 53 14 72 13 33 -2 35 -4 35 -37z m-8865 -314 c0 -13
-3 -32 -6 -41 -7 -17 -93 -80 -100 -73 -7 8 36 122 49 130 6 4 22 8 35 8 17 0
22 -6 22 -24z m4458 -53 c-3 -36 -5 -38 -40 -41 l-38 -3 0 40 0 41 41 0 40 0
-3 -37z m2056 -4 c103 -8 146 -15 162 -28 22 -17 21 -41 -2 -41 -8 0 -14 -7
-14 -15 0 -13 -8 -11 -42 7 -39 21 -56 23 -173 23 -71 -1 -173 -5 -226 -9
-104 -9 -149 -4 -149 18 0 13 80 39 150 50 52 7 158 6 294 -5z m-6110 -73 l38
-33 -48 -20 c-67 -29 -153 -50 -254 -62 -123 -16 -130 -15 -130 13 0 36 64 76
122 76 26 0 77 11 115 24 58 21 92 31 113 34 3 1 22 -14 44 -32z m7033 16 c7
-4 10 -17 6 -30 -5 -21 -11 -23 -57 -20 -40 2 -52 7 -54 22 -2 10 2 22 10 27
16 11 79 11 95 1z m-7960 -25 c4 -5 1 -14 -8 -20 -23 -17 -169 -10 -169 8 0 7
6 16 13 19 18 8 154 2 164 -7z m1368 -118 c72 -17 153 -42 180 -55 28 -13 80
-30 116 -39 73 -18 97 -30 85 -42 -4 -4 -310 -8 -679 -9 -630 0 -803 -6 -881
-30 -17 -6 -17 -4 4 26 30 42 55 50 163 50 120 0 372 26 450 46 77 20 141 41
192 65 79 36 177 33 370 -12z m5683 15 c17 -5 22 -14 22 -40 0 -33 -1 -33 -32
-26 -75 16 -113 9 -169 -35 l-54 -41 -200 -6 c-110 -4 -303 -14 -430 -21 -126
-8 -291 -15 -365 -14 l-135 0 30 25 c64 52 114 59 420 57 317 -3 427 8 522 52
85 40 317 68 391 49z m-3523 -24 c50 -6 160 -24 245 -41 226 -44 290 -50 385
-34 315 53 533 45 608 -23 18 -16 18 -17 -5 -23 -12 -4 -69 -4 -125 -1 -87 4
-103 3 -103 -10 0 -30 -469 -39 -720 -13 -177 18 -557 81 -573 95 -12 11 70
41 133 50 30 4 57 8 60 9 3 0 46 -4 95 -9z m-560 -9 l60 -6 -33 -18 c-106 -58
-289 -86 -570 -90 -111 -1 -202 -1 -202 0 0 8 105 54 165 73 136 42 400 61
580 41z m4801 -6 c137 0 174 -3 189 -15 14 -12 62 -16 224 -21 113 -3 217 -11
231 -16 28 -12 64 -49 73 -75 4 -10 5 -18 4 -18 -1 0 -45 10 -97 21 -87 20
-139 22 -620 30 -289 4 -540 11 -558 14 -32 7 -32 8 -15 27 19 21 61 46 103
59 14 5 86 5 160 1 74 -4 212 -7 306 -7z m-2502 -33 c59 -20 97 -63 80 -90
-20 -31 -125 -35 -234 -9 -89 21 -95 24 -98 49 -2 19 3 30 20 39 59 32 159 36
232 11z m-758 -247 c23 -36 7 -50 -76 -69 -38 -8 -87 -24 -109 -36 -22 -11
-58 -20 -81 -20 -33 0 -47 7 -81 40 -35 33 -39 43 -29 55 7 8 21 15 32 15 11
0 29 5 41 11 22 12 131 25 229 28 51 1 59 -2 74 -24z"/>
<path d="M11295 2626 c-13 -10 -18 -24 -17 -56 3 -78 35 -127 155 -245 88 -86
116 -120 127 -155 13 -40 19 -45 47 -48 49 -5 61 28 38 99 -15 46 -35 70 -131
164 -117 115 -127 128 -138 184 -7 37 -31 71 -51 71 -6 0 -20 -6 -30 -14z"/>
<path d="M5706 2483 c-25 -21 -55 -45 -67 -53 -16 -12 -20 -22 -15 -38 14 -42
62 -26 139 47 42 40 43 43 21 65 -22 22 -27 21 -78 -21z"/>
<path d="M5830 2421 c-40 -21 -62 -65 -49 -99 7 -19 15 -23 46 -20 42 3 66 34
77 101 6 34 5 37 -16 37 -13 0 -39 -8 -58 -19z"/>
<path d="M1915 2374 c-11 -2 -45 -9 -75 -15 -69 -14 -170 -59 -220 -99 -21
-17 -56 -37 -78 -44 -125 -44 -216 -124 -295 -260 -30 -50 -72 -122 -94 -161
-88 -150 -198 -224 -400 -270 -297 -67 -358 -85 -451 -131 -105 -53 -222 -153
-222 -191 0 -22 33 -53 57 -53 7 0 41 25 75 56 108 96 209 138 474 194 218 47
338 96 429 177 47 41 114 136 180 252 76 135 144 218 209 255 56 32 83 37 147
27 42 -7 59 -6 77 5 39 25 24 62 -29 73 l-34 7 35 22 c80 50 206 82 325 82 95
0 192 -25 288 -74 48 -25 94 -43 102 -40 22 9 27 35 11 59 -19 28 -135 89
-211 109 -58 16 -260 30 -300 20z"/>
<path d="M5094 2358 c-12 -5 -27 -21 -33 -35 -10 -21 -9 -28 6 -39 28 -21 69
-16 102 12 17 14 31 30 31 35 0 10 -61 40 -77 38 -4 0 -18 -5 -29 -11z"/>
<path d="M2550 2248 c0 -16 50 -120 83 -172 27 -43 33 -39 47 32 12 67 -2 117
-40 137 -35 18 -90 20 -90 3z"/>
<path d="M3945 1957 c-11 -8 -53 -27 -94 -42 -120 -45 -176 -113 -150 -182 17
-45 72 -36 92 16 16 38 28 47 127 84 103 38 133 70 105 113 -17 27 -50 31 -80
11z"/>
<path d="M3380 1951 c-39 -22 -176 -41 -366 -51 -361 -18 -447 -35 -636 -121
-178 -81 -297 -150 -575 -332 -221 -144 -379 -237 -404 -237 -12 0 -52 -17
-90 -37 -86 -48 -91 -63 -53 -173 15 -44 29 -80 32 -80 3 0 24 11 48 25 46 27
92 90 113 153 11 33 23 45 65 68 63 34 188 113 366 229 204 133 302 191 450
265 238 119 304 135 640 150 235 11 366 29 440 61 53 23 65 40 50 70 -11 20
-53 25 -80 10z"/>
<path d="M1500 1834 c0 -9 -9 -18 -20 -21 -28 -7 -28 -68 -1 -83 41 -22 85 56
55 98 -18 26 -34 29 -34 6z"/>
<path d="M5800 1808 c-11 -18 -20 -37 -20 -41 0 -5 -20 -39 -44 -75 -125 -193
-367 -353 -766 -507 -131 -51 -169 -77 -149 -101 18 -21 32 -18 183 42 471
188 714 366 837 615 32 64 31 99 -2 99 -11 0 -28 -14 -39 -32z"/>
<path d="M11187 1796 c-21 -8 -48 -22 -59 -33 -25 -21 -57 -89 -58 -119 0 -19
4 -21 38 -14 53 10 97 35 125 72 24 32 57 92 57 103 0 10 -65 4 -103 -9z"/>
<path d="M9170 1538 c0 -27 31 -140 45 -168 14 -28 79 -60 93 -46 10 10 -15
135 -32 161 -27 41 -106 81 -106 53z"/>
<path d="M9007 1463 c-12 -12 -7 -51 7 -56 8 -3 33 -31 56 -61 42 -59 59 -67
81 -40 11 13 10 22 -7 52 -41 77 -112 131 -137 105z"/>
<path d="M9573 1345 c-32 -14 -33 -16 -33 -75 l0 -60 111 0 112 0 -6 36 c-7
43 -39 81 -84 100 -40 17 -59 17 -100 -1z"/>
<path d="M2602 894 c-28 -20 -29 -54 -2 -54 41 0 90 36 90 66 0 11 -68 2 -88
-12z"/>
<path d="M3526 894 c-8 -20 -9 -17 29 -37 45 -23 100 -31 124 -18 31 17 26 31
-11 31 -18 0 -46 9 -63 20 -37 24 -71 26 -79 4z"/>
<path d="M360 562 l-23 -19 89 -32 c113 -41 169 -45 195 -12 10 13 19 35 19
50 l0 26 -128 3 c-114 3 -130 2 -152 -16z"/>
</g>
</svg>
